{
  "asset": {
    "generator": "Khronos glTF Blender I/O v3.5.30",
    "version": "2.0"
  },
  "scene": 0,
  "scenes": [
    {
      "name": "Scene",
      "nodes": [
        0,
        1
      ]
    }
  ],
  "nodes": [
    {
      "mesh": 0,
      "name": "Ramp - Applied transform"
    },
    {
      "mesh": 1,
      "name": "Street.003 - applied transform.001"
    }
  ],
  "materials": [
    {
      "doubleSided": true,
      "name": "Material.015",
      "pbrMetallicRoughness": {
        "baseColorFactor": [
          0.07999999821186066,
          0.07999999821186066,
          0.07999999821186066,
          1
        ],
        "metallicFactor": 0
      }
    }
  ],
  "meshes": [
    {
      "name": "Mesh.002",
      "primitives": [
        {
          "attributes": {
            "COLOR_0": 0,
            "POSITION": 1,
            "NORMAL": 2
          },
          "indices": 3,
          "material": 0
        }
      ]
    },
    {
      "name": "Plane.001",
      "primitives": [
        {
          "attributes": {
            "POSITION": 4,
            "TEXCOORD_0": 5,
            "NORMAL": 6
          },
          "indices": 7,
          "material": 0
        }
      ]
    }
  ],
  "accessors": [
    {
      "bufferView": 0,
      "componentType": 5123,
      "count": 122,
      "normalized": true,
      "type": "VEC4"
    },
    {
      "bufferView": 1,
      "componentType": 5126,
      "count": 122,
      "max": [
        -0.7757456302642822,
        0.22255726158618927,
        0.9183511137962341
      ],
      "min": [
        -1.2005047798156738,
        -0.000015947269275784492,
        0.40614673495292664
      ],
      "type": "VEC3"
    },
    {
      "bufferView": 2,
      "componentType": 5126,
      "count": 122,
      "type": "VEC3"
    },
    {
      "bufferView": 3,
      "componentType": 5123,
      "count": 156,
      "type": "SCALAR"
    },
    {
      "bufferView": 4,
      "componentType": 5126,
      "count": 32,
      "max": [
        -2.3488962650299072,
        0.16407734155654907,
        0.90535569190979
      ],
      "min": [
        -2.709866762161255,
        0,
        0.8725402355194092
      ],
      "type": "VEC3"
    },
    {
      "bufferView": 5,
      "componentType": 5126,
      "count": 32,
      "type": "VEC2"
    },
    {
      "bufferView": 6,
      "componentType": 5126,
      "count": 32,
      "type": "VEC3"
    },
    {
      "bufferView": 7,
      "componentType": 5123,
      "count": 36,
      "type": "SCALAR"
    }
  ],
  "bufferViews": [
    {
      "buffer": 0,
      "byteLength": 976,
      "byteOffset": 0,
      "target": 34962
    },
    {
      "buffer": 0,
      "byteLength": 1464,
      "byteOffset": 976,
      "target": 34962
    },
    {
      "buffer": 0,
      "byteLength": 1464,
      "byteOffset": 2440,
      "target": 34962
    },
    {
      "buffer": 0,
      "byteLength": 312,
      "byteOffset": 3904,
      "target": 34963
    },
    {
      "buffer": 0,
      "byteLength": 384,
      "byteOffset": 4216,
      "target": 34962
    },
    {
      "buffer": 0,
      "byteLength": 256,
      "byteOffset": 4600,
      "target": 34962
    },
    {
      "buffer": 0,
      "byteLength": 384,
      "byteOffset": 4856,
      "target": 34962
    },
    {
      "buffer": 0,
      "byteLength": 72,
      "byteOffset": 5240,
      "target": 34963
    }
  ],
  "buffers": [
    {
      "uri": "ramp_data.bin",
      "byteLength": 5312
    }
  ]
}